<svg width="352" height="100" viewBox="0 0 352 100" fill="none" xmlns="http://www.w3.org/2000/svg">
<rect x="199.797" y="57.7422" width="142" height="42" rx="21" fill="#EEEEEE"/>
<path d="M260.749 80.8504L263.965 81.2168V76.3423L260.749 76.7087V80.8504Z" fill="#063369"/>
<path d="M270.476 77.0433C270.949 77.9726 271.879 78.7199 273.266 79.2841L275.567 80.2243C275.967 80.3917 276.288 80.5482 276.529 80.6938C276.771 80.8406 276.96 81.0286 277.097 81.2579C277.233 81.4884 277.322 81.7905 277.365 82.1666C277.385 82.3376 277.398 82.5329 277.409 82.7465L280.638 83.1141C280.625 82.4856 280.586 81.9118 280.519 81.3986C280.435 80.7617 280.271 80.1976 280.031 79.7062C279.789 79.2161 279.447 78.7867 279.005 78.4215C278.564 78.0563 277.985 77.7373 277.271 77.4655L274.812 76.4938C274.391 76.3263 274.06 76.1601 273.819 75.9927C273.577 75.8253 273.393 75.6324 273.267 75.4128C273.245 75.374 273.225 75.3328 273.206 75.2915L269.988 75.6579C270.105 76.165 270.266 76.6284 270.476 77.0433V77.0433Z" fill="#063369"/>
<path d="M286.288 83.758V83.7592L287.801 83.9302L289.504 84.1243V73.4363L286.288 73.8027V83.758Z" fill="#063369"/>
<path d="M302.999 71.9015C303.103 72.183 303.155 72.513 303.155 72.8915V84.675C303.155 85.0523 303.103 85.3811 303 85.6614L306.238 86.0302C306.326 85.6116 306.371 85.1603 306.371 84.675V72.8915C306.371 72.4086 306.323 71.9561 306.233 71.5339L302.999 71.9015Z" fill="#063369"/>
<path d="M298.802 84.6746V72.8899C298.802 72.7055 298.815 72.5344 298.839 72.373L295.589 72.7431C295.589 72.7916 295.586 72.8401 295.586 72.8899V84.6734C295.586 84.7219 295.588 84.768 295.588 84.8166L298.838 85.1866C298.814 85.0265 298.802 84.8566 298.802 84.6734V84.6746Z" fill="#063369"/>
<path d="M320.241 81.0712H320.178L316.319 70.3844L312.232 70.8502V86.7125L315.448 87.0789V76.5267H315.512L319.553 87.5459L323.457 87.9899V69.5715L320.241 69.9379V81.0712Z" fill="#063369"/>
<path d="M260.748 76.7129L263.964 76.3465V67.6287H260.748V76.7129Z" fill="#063369"/>
<path d="M260.748 89.9407H263.964V81.2179L260.748 80.8516V89.9407Z" fill="#063369"/>
<path d="M279.174 69.0384C278.7 68.558 278.134 68.1722 277.471 67.8786C276.81 67.5862 276.079 67.4395 275.281 67.4395C274.356 67.4395 273.546 67.602 272.853 67.9247C272.16 68.2486 271.586 68.6817 271.135 69.2252C270.682 69.7687 270.341 70.4166 270.11 71.1688C269.878 71.9209 269.763 72.7155 269.763 73.5502C269.763 74.3266 269.839 75.0279 269.984 75.6599L273.202 75.2935C273.112 75.1006 273.052 74.8811 273.026 74.6324C272.995 74.3303 272.979 73.9591 272.979 73.5199C272.979 73.1438 273.011 72.7835 273.074 72.4389C273.137 72.0944 273.247 71.7911 273.405 71.5303C273.562 71.2694 273.783 71.0547 274.067 70.8873C274.352 70.7199 274.714 70.6362 275.155 70.6362C275.975 70.6362 276.558 70.9031 276.905 71.4357C277.252 71.9682 277.425 72.6003 277.425 73.3318V74.0525H280.641V72.485C280.641 71.8578 280.515 71.2476 280.263 70.6519C280.01 70.0563 279.647 69.5188 279.175 69.0384H279.174Z" fill="#063369"/>
<path d="M277.361 84.9922C277.318 85.4108 277.219 85.7602 277.062 86.0428C276.905 86.3255 276.673 86.5439 276.369 86.7004C276.064 86.8569 275.638 86.9357 275.092 86.9357C274.272 86.9357 273.689 86.7004 273.342 86.2309C272.995 85.7614 272.822 85.2336 272.822 84.6489V83.6456H269.606V84.8369C269.606 85.5891 269.748 86.2903 270.032 86.9369C270.317 87.5848 270.7 88.144 271.183 88.6135C271.666 89.0842 272.244 89.4555 272.917 89.726C273.59 89.9978 274.315 90.1336 275.093 90.1336C276.123 90.1336 276.996 89.9662 277.71 89.6326C278.424 89.299 278.998 88.844 279.428 88.269C279.859 87.694 280.169 87.0049 280.358 86.2005C280.548 85.3962 280.643 84.5239 280.643 83.5837C280.643 83.4248 280.64 83.2731 280.637 83.1215L277.407 82.7539C277.42 83.0111 277.427 83.2962 277.427 83.6153C277.427 84.1163 277.406 84.5761 277.363 84.9946L277.361 84.9922Z" fill="#063369"/>
<path d="M286.287 89.9439H289.503V84.1288L287.801 83.9347L286.287 83.7637V89.9439Z" fill="#063369"/>
<path d="M286.287 73.8053L289.503 73.439V67.6287H286.287V73.8053Z" fill="#063369"/>
<path d="M299.45 71.1845C299.881 70.8194 300.39 70.6362 300.98 70.6362C301.569 70.6362 302.078 70.8194 302.509 71.1845C302.729 71.3714 302.891 71.6103 302.999 71.9027L306.234 71.5351C306.156 71.1724 306.045 70.8303 305.899 70.5112C305.584 69.8221 305.168 69.2531 304.654 68.8031C304.139 68.3542 303.561 68.0145 302.92 67.784C302.278 67.5547 301.633 67.4395 300.981 67.4395C300.329 67.4395 299.682 67.5547 299.042 67.784C298.4 68.0145 297.822 68.353 297.307 68.8031C296.792 69.2531 296.377 69.8221 296.062 70.5112C295.765 71.1627 295.61 71.9088 295.593 72.7459L298.843 72.3759C298.921 71.8615 299.123 71.4636 299.452 71.1845H299.45Z" fill="#063369"/>
<path d="M302.997 85.6637C302.889 85.9573 302.726 86.1987 302.505 86.3856C302.074 86.7507 301.564 86.9339 300.976 86.9339C300.387 86.9339 299.877 86.7519 299.446 86.3856C299.117 86.1065 298.914 85.7074 298.837 85.1906L295.587 84.8206C295.603 85.6795 295.758 86.4317 296.057 87.0746C296.372 87.754 296.787 88.3181 297.302 88.767C297.817 89.2171 298.394 89.5556 299.036 89.7849C299.677 90.0142 300.324 90.1294 300.976 90.1294C301.627 90.1294 302.273 90.0142 302.915 89.7849C303.556 89.5556 304.134 89.2159 304.649 88.767C305.164 88.3181 305.579 87.754 305.894 87.0746C306.043 86.7544 306.155 86.4062 306.233 86.0325L302.996 85.6637H302.997Z" fill="#063369"/>
<path d="M320.429 89.9446H323.456V87.9938L319.552 87.5498L320.429 89.9446Z" fill="#063369"/>
<path d="M312.232 89.9417H315.447V87.08L312.232 86.7136V89.9417Z" fill="#063369"/>
<path d="M320.24 69.9408L323.455 69.5745V67.6287H320.24V69.9408Z" fill="#063369"/>
<path d="M315.322 67.6287H312.232V70.8532L316.318 70.3874L315.322 67.6287Z" fill="#063369"/>
<path d="M255.556 74.7711L255.561 72.608C255.561 71.919 255.429 71.2602 255.166 70.633C254.903 70.0058 254.54 69.4574 254.079 68.9879C253.616 68.5172 253.075 68.1411 252.456 67.8597C251.836 67.577 251.168 67.4363 250.454 67.4363C249.844 67.4363 249.224 67.52 248.594 67.6862C247.963 67.8536 247.396 68.1411 246.892 68.5488C246.388 68.9564 245.972 69.4938 245.647 70.1623C245.319 70.832 245.156 71.6787 245.156 72.7027V84.8672C245.156 85.8911 245.319 86.7379 245.644 87.4063C245.97 88.0748 246.385 88.6134 246.889 89.0199C247.393 89.4275 247.961 89.715 248.592 89.8812C249.223 90.0486 249.842 90.1323 250.452 90.1323C251.166 90.1323 251.833 89.9916 252.453 89.7089C253.073 89.4263 253.614 89.0502 254.077 88.5807C254.539 88.11 254.902 87.5616 255.164 86.9356C255.426 86.3084 255.558 85.6509 255.558 84.9606V82.7514L252.308 82.3935V83.3725C252.308 84.0289 252.318 85.5235 251.942 86.1131C251.849 86.2587 251.742 86.3873 251.619 86.5001C251.431 86.6481 251.227 86.7573 251.003 86.8252C250.825 86.8798 250.657 86.9126 250.496 86.9271C250.448 86.9308 250.399 86.9332 250.348 86.9344C250.341 86.9344 250.332 86.9344 250.325 86.9344C249.589 86.9344 249.08 86.7148 248.796 86.2757C248.513 85.8365 248.37 85.2942 248.37 84.6464V72.9223C248.37 72.2744 248.511 71.7309 248.796 71.293C249.08 70.8538 249.589 70.6342 250.325 70.6342C250.332 70.6342 250.34 70.6342 250.348 70.6342C250.399 70.6342 250.448 70.6378 250.496 70.6415C250.656 70.656 250.825 70.6888 251.003 70.7434C251.227 70.8113 251.431 70.9205 251.619 71.0685C251.743 71.1813 251.849 71.3099 251.942 71.4555C252.318 72.0451 252.308 73.5398 252.308 74.1961V75.1751L255.555 74.7711H255.556Z" fill="#063369"/>
<path d="M220.034 72.8207V78.7065C220.475 77.8727 221.236 77.2841 222.535 77.2841C224.841 77.2841 226.386 79.2705 226.386 82.7774V84.396C226.386 87.5841 225.135 89.9384 222.535 89.9384C221.211 89.9384 220.524 89.4724 220.034 88.6631V89.7422H218.072V72.8207H220.034ZM222.217 88.1727C223.762 88.1727 224.424 86.4805 224.424 84.396V82.7774C224.424 80.4477 223.688 79.0498 222.217 79.0498C220.868 79.0498 220.034 80.3986 220.034 82.6058V84.396C220.034 86.505 220.598 88.1727 222.217 88.1727ZM231.949 90.2081L232.047 89.8648L228.246 77.4803H230.355L232.636 85.3769L233.003 86.6767L235.284 77.4803H237.32L233.935 90.1346C233.126 93.0774 232.513 94.4017 229.57 94.4017V92.4889C230.747 92.4889 231.385 92.1946 231.949 90.2081Z" fill="#063369"/>
<g clip-path="url(#clip0_1589_597)">
<path d="M0 41.3089V3.04272H18.9977C27.528 3.04272 32.1909 8.83534 32.1909 15.7795C32.1909 22.7236 27.528 28.3418 18.9977 28.3418H9.78248V41.3089H0ZM17.6901 11.3618H9.78248V19.9669H17.6901C20.3053 19.9669 22.2423 18.3059 22.2423 15.7237C22.2423 13.1414 20.3053 11.3618 17.6901 11.3618Z" fill="#063369"/>
<path d="M57.734 41.3089L51.3623 28.3418H46.3604V41.3089H36.5779V3.04272H55.5756C63.9951 3.04272 68.7688 8.66785 68.7688 15.7795C68.7688 22.4376 64.7285 25.9899 61.2071 27.2531L68.9417 41.3089H57.734ZM54.095 11.3618H46.3604V19.9669H54.095C56.6548 19.9669 58.8133 18.3059 58.8133 15.6609C58.8133 13.0158 56.6548 11.3548 54.095 11.3548V11.3618Z" fill="#063369"/>
<path d="M114.554 41.3089L98.5175 18.1873V41.3089H88.7351V3.04272H98.8014L114.16 25.0756V3.04272H123.998V41.3159H114.554V41.3089Z" fill="#063369"/>
<path d="M143.396 12.9111C151.532 12.9111 157.447 18.934 157.447 28.3488V30.2401H137.882C138.395 32.8224 140.781 35.1744 144.876 35.1744C147.326 35.1744 150.051 34.1973 151.587 32.8224L155.282 38.3289C152.549 40.7994 148.004 41.9999 143.79 41.9999C135.316 41.9999 128.778 36.4375 128.778 27.4276C128.778 19.3947 134.804 12.9111 143.396 12.9111ZM137.764 24.5033H149.083C148.854 22.5492 147.437 19.7437 143.396 19.7437C139.584 19.7437 138.103 22.5004 137.764 24.5033Z" fill="#063369"/>
<path d="M186.11 41.3093L180.935 24.1547L175.815 41.3093H166.371L158.235 13.5955H167.223L171.657 30.5825L177.06 13.5955H184.85L190.253 30.5825L194.632 13.5955H203.675L195.539 41.3093H186.095H186.11Z" fill="#063369"/>
<path d="M207.84 31.6708C209.888 33.5063 214.267 35.3418 217.511 35.3418C220.127 35.3418 221.206 34.4834 221.206 33.2761C221.206 31.8383 219.331 31.3219 216.488 30.8682C211.825 30.0656 205.225 29.0886 205.225 22.0328C205.225 17.1544 209.376 12.9111 216.999 12.9111C221.608 12.9111 225.53 14.4046 228.492 16.5821L225.136 22.4376C223.489 20.8323 220.355 19.3947 217.062 19.3947C215.014 19.3947 213.596 20.0856 213.596 21.286C213.596 22.4864 215.077 23.0098 217.975 23.5263C222.638 24.3288 229.577 25.4734 229.577 32.8224C229.577 38.0985 224.97 41.9999 217.062 41.9999C212.171 41.9999 207.107 40.3388 204.208 37.7566L207.847 31.6779L207.84 31.6708Z" fill="#063369"/>
<path d="M258.406 41.3093L253.231 24.1547L248.112 41.3093H238.667L230.532 13.5955H239.519L243.953 30.5825L249.357 13.5955H257.147L262.55 30.5825L266.93 13.5955H275.972L267.835 41.3093H258.392H258.406Z" fill="#063369"/>
<path d="M278.199 5.04586C278.199 2.2333 280.42 0 283.209 0C285.996 0 288.21 2.24028 288.21 5.04586C288.21 7.85144 285.99 10.0917 283.209 10.0917C280.427 10.0917 278.199 7.85144 278.199 5.04586ZM278.822 41.3091V13.5952H287.58V41.3091H278.822Z" fill="#063369"/>
<path d="M293.952 41.309V13.5951H302.711V17.0985C304.53 14.8583 308.003 12.9111 311.303 12.9111V21.4605C310.791 21.286 310.051 21.1743 309.145 21.1743C306.868 21.1743 303.853 22.1514 302.717 23.7566V41.3159H293.959L293.952 41.309Z" fill="#063369"/>
<path d="M328.08 12.9111C336.217 12.9111 342.132 18.934 342.132 28.3488V30.2401H322.566C323.078 32.8224 325.466 35.1744 329.561 35.1744C332.01 35.1744 334.736 34.1973 336.272 32.8224L339.966 38.3289C337.233 40.7994 332.688 41.9999 328.475 41.9999C320 41.9999 313.455 36.4375 313.455 27.4276C313.455 19.3947 319.481 12.9111 328.073 12.9111H328.08ZM322.449 24.5033H333.767C333.539 22.5492 332.121 19.7437 328.08 19.7437C324.269 19.7437 322.788 22.5004 322.449 24.5033Z" fill="#063369"/>
<path d="M343.446 10.0916C343.446 7.8723 345.216 6.09961 347.403 6.09961C349.589 6.09961 351.36 7.86532 351.36 10.0916C351.36 12.318 349.61 14.0837 347.403 14.0837C345.196 14.0837 343.446 12.297 343.446 10.0916ZM344.061 10.0916C344.061 11.9341 345.556 13.4625 347.403 13.4625C349.25 13.4625 350.724 11.9411 350.724 10.0916C350.724 8.24218 349.25 6.74168 347.403 6.74168C345.556 6.74168 344.061 8.20729 344.061 10.0916ZM348.461 12.3878L347.285 10.5801H346.538V12.3878H345.867V7.81646H347.715C348.551 7.81646 349.223 8.36083 349.223 9.21228C349.223 10.2313 348.33 10.5662 348.067 10.5662L349.278 12.3947H348.454L348.461 12.3878ZM346.545 8.38177V10.0009H347.721C348.185 10.0009 348.544 9.67991 348.544 9.21228C348.544 8.70281 348.191 8.38177 347.721 8.38177H346.545Z" fill="#063369"/>
</g>
<defs>
<clipPath id="clip0_1589_597">
<rect width="352" height="42" fill="white"/>
</clipPath>
</defs>
</svg>
